<svg width="361" height="217" viewBox="0 0 361 217" fill="white" xmlns="http://www.w3.org/2000/svg">
<path d="M0 2V52.0671C0 53.1717 0.895431 54.0671 2 54.0671H176.985C177.593 54.0671 178.168 53.7908 178.547 53.3162L218.585 3.2491C219.633 1.93951 218.7 0 217.023 0H2C0.895431 0 0 0.895431 0 2Z"  />
<path d="M189.072 216.38L251.965 216.38C252.725 216.38 253.443 216.028 253.909 215.426L359.808 83.2122C360.141 82.7817 360.322 82.2528 360.322 81.7085V2.87163C360.322 0.545989 357.391 -0.478677 355.942 1.34033L187.15 212.391C185.868 214.001 187.014 216.38 189.072 216.38Z"  />
<path d="M149.5 216.38L87.6456 216.38C85.5773 216.38 84.434 213.981 85.7367 212.374L254.269 0.909729C254.736 0.334264 255.437 2.18083e-05 256.178 1.49658e-05L318.5 0C320.556 9.18582e-06 321.703 2.37501 320.425 3.98562L151.425 215.45C150.959 216.037 150.25 216.38 149.5 216.38Z"  />
<path d="M292.603 216.38L357.563 216.38C358.921 216.38 360.021 215.279 360.021 213.922L360.021 136.03C360.021 133.717 354.116 132.685 352.657 134.48L290.696 212.372C289.39 213.978 290.533 216.38 292.603 216.38Z"  />
<path d="M0 131.71V81.6432C0 80.5386 0.895432 79.6432 2 79.6432H153.355C155.032 79.6432 155.964 81.5827 154.917 82.8923L114.879 132.959C114.499 133.434 113.924 133.71 113.317 133.71H2C0.895431 133.71 0 132.815 0 131.71Z"  />
<path d="M0 161.201V214.268C0 215.373 0.895431 216.268 2 216.268H49.6156C50.2417 216.268 50.8316 215.975 51.2097 215.476L91.4159 162.409C92.4139 161.092 91.4743 159.201 89.8217 159.201H2C0.895431 159.201 0 160.097 0 161.201Z"  />
</svg>
