<svg width="295" height="177" viewBox="0 0 295 177" fill="white" xmlns="http://www.w3.org/2000/svg">
<path fill-rule="evenodd" clip-rule="evenodd" d="M0 2.90942V42.9094C0 44.014 0.895431 44.9094 2 44.9094H143.052C143.652 44.9094 144.22 44.6402 144.6 44.1759L177.327 4.1759C178.396 2.87004 177.467 0.909424 175.78 0.909424H2.00001C0.895436 0.909424 0 1.80485 0 2.90942ZM159.564 177L209.933 177C210.552 177 211.136 176.713 211.514 176.224L293.627 67C293.898 66.6497 294.045 66.2193 294.045 65.7763V3.24618C294.045 1.35357 291.66 0.519688 290.48 2L158 173.754C156.956 175.064 157.889 177 159.564 177ZM121.341 177L71.0037 177C69.3205 177 68.3901 175.048 69.4503 173.74L209.648 1.64976C210.028 1.18145 210.599 0.909442 211.202 0.909436L258.665 0.909424C260.338 0.909431 261.271 2.84221 260.231 4.15294L122.908 176.243C122.528 176.721 121.951 177 121.341 177ZM243.004 177L291.8 177C292.905 177 293.8 176.105 293.8 175L293.8 112.425C293.8 110.542 291.436 109.702 290.248 111.163L241.452 173.738C240.389 175.045 241.319 177 243.004 177ZM0 106.909V66.9094C0 65.8049 0.895431 64.9094 2 64.9094H124.78C126.467 64.9094 127.396 66.87 126.327 68.1759L93.6002 108.176C93.2203 108.64 92.6521 108.909 92.0522 108.909H2C0.895431 108.909 0 108.014 0 106.909ZM0 134.909V174.909C0 176.014 0.895431 176.909 2 176.909H41.0522C41.6521 176.909 42.2203 176.64 42.6002 176.176L75.3274 136.176C76.3959 134.87 75.4668 132.909 73.7795 132.909H2C0.89543 132.909 0 133.805 0 134.909Z" />
</svg>
